<mxfile host="app.diagrams.net" modified="2023-12-16T19:43:05.192Z" agent="Mozilla/5.0 (Macintosh; Intel Mac OS X 10_15_7) AppleWebKit/537.36 (KHTML, like Gecko) Chrome/120.0.0.0 Safari/537.36" etag="lfhnhEa-AmCU520pNiiE" version="22.1.11" type="device">
  <diagram name="Page-1" id="SuQgEgQxvpsalF9tRc-u">
    <mxGraphModel dx="1116" dy="688" grid="1" gridSize="10" guides="1" tooltips="1" connect="1" arrows="1" fold="1" page="1" pageScale="1" pageWidth="827" pageHeight="1169" math="0" shadow="0">
      <root>
        <mxCell id="0" />
        <mxCell id="1" parent="0" />
        <mxCell id="rKBbz4sQz67ost8SNPDC-1" style="edgeStyle=orthogonalEdgeStyle;rounded=0;orthogonalLoop=1;jettySize=auto;html=1;" edge="1" parent="1" source="rKBbz4sQz67ost8SNPDC-3" target="rKBbz4sQz67ost8SNPDC-15">
          <mxGeometry relative="1" as="geometry">
            <mxPoint x="400" y="60" as="targetPoint" />
          </mxGeometry>
        </mxCell>
        <mxCell id="rKBbz4sQz67ost8SNPDC-2" value="call" style="edgeLabel;html=1;align=center;verticalAlign=middle;resizable=0;points=[];fontSize=12;" vertex="1" connectable="0" parent="rKBbz4sQz67ost8SNPDC-1">
          <mxGeometry x="-0.1166" y="1" relative="1" as="geometry">
            <mxPoint x="-20" y="-10" as="offset" />
          </mxGeometry>
        </mxCell>
        <mxCell id="rKBbz4sQz67ost8SNPDC-3" value="Action" style="rounded=0;whiteSpace=wrap;html=1;fontSize=16;" vertex="1" parent="1">
          <mxGeometry x="40" y="40" width="110" height="40" as="geometry" />
        </mxCell>
        <mxCell id="rKBbz4sQz67ost8SNPDC-17" value="" style="edgeStyle=orthogonalEdgeStyle;rounded=0;orthogonalLoop=1;jettySize=auto;html=1;" edge="1" parent="1" source="rKBbz4sQz67ost8SNPDC-15" target="rKBbz4sQz67ost8SNPDC-16">
          <mxGeometry relative="1" as="geometry" />
        </mxCell>
        <mxCell id="rKBbz4sQz67ost8SNPDC-18" value="Callback throws/rejects" style="edgeLabel;html=1;align=center;verticalAlign=middle;resizable=0;points=[];fontSize=12;" vertex="1" connectable="0" parent="rKBbz4sQz67ost8SNPDC-17">
          <mxGeometry x="-0.3822" relative="1" as="geometry">
            <mxPoint x="-2" y="-11" as="offset" />
          </mxGeometry>
        </mxCell>
        <mxCell id="rKBbz4sQz67ost8SNPDC-20" value="" style="edgeStyle=orthogonalEdgeStyle;rounded=0;orthogonalLoop=1;jettySize=auto;html=1;" edge="1" parent="1" source="rKBbz4sQz67ost8SNPDC-15" target="rKBbz4sQz67ost8SNPDC-19">
          <mxGeometry relative="1" as="geometry" />
        </mxCell>
        <mxCell id="rKBbz4sQz67ost8SNPDC-21" value="Callback returns value" style="edgeLabel;html=1;align=center;verticalAlign=middle;resizable=0;points=[];fontSize=12;" vertex="1" connectable="0" parent="rKBbz4sQz67ost8SNPDC-20">
          <mxGeometry x="-0.7045" y="2" relative="1" as="geometry">
            <mxPoint x="39" y="-8" as="offset" />
          </mxGeometry>
        </mxCell>
        <mxCell id="rKBbz4sQz67ost8SNPDC-15" value="" style="rhombus;whiteSpace=wrap;html=1;" vertex="1" parent="1">
          <mxGeometry x="250" y="110" width="50" height="50" as="geometry" />
        </mxCell>
        <mxCell id="rKBbz4sQz67ost8SNPDC-16" value="" style="ellipse;whiteSpace=wrap;html=1;" vertex="1" parent="1">
          <mxGeometry x="100" y="232.5" width="20" height="20" as="geometry" />
        </mxCell>
        <mxCell id="rKBbz4sQz67ost8SNPDC-19" value="" style="ellipse;whiteSpace=wrap;html=1;" vertex="1" parent="1">
          <mxGeometry x="440" y="230" width="22.5" height="22.5" as="geometry" />
        </mxCell>
        <mxCell id="rKBbz4sQz67ost8SNPDC-25" value="" style="group" vertex="1" connectable="0" parent="1">
          <mxGeometry x="110" y="188.5" width="150" height="20" as="geometry" />
        </mxCell>
        <mxCell id="rKBbz4sQz67ost8SNPDC-22" value="" style="endArrow=none;dashed=1;html=1;dashPattern=1 3;strokeWidth=2;rounded=0;fillColor=#1ba1e2;strokeColor=#006EAF;" edge="1" parent="rKBbz4sQz67ost8SNPDC-25" target="rKBbz4sQz67ost8SNPDC-24">
          <mxGeometry width="50" height="50" relative="1" as="geometry">
            <mxPoint y="9.710000000000008" as="sourcePoint" />
            <mxPoint x="129" y="9.710000000000008" as="targetPoint" />
          </mxGeometry>
        </mxCell>
        <mxCell id="rKBbz4sQz67ost8SNPDC-23" value="rejected&lt;br&gt;&lt;font color=&quot;#6e4201&quot;&gt;&lt;font style=&quot;font-size: 12px;&quot;&gt;(&lt;/font&gt;ActionRejectedEvent)&lt;/font&gt;" style="edgeLabel;html=1;align=left;verticalAlign=middle;resizable=0;points=[];fontSize=12;fontColor=#006EAF;rotation=0;" vertex="1" connectable="0" parent="rKBbz4sQz67ost8SNPDC-22">
          <mxGeometry x="0.2113" relative="1" as="geometry">
            <mxPoint x="-69" y="-26" as="offset" />
          </mxGeometry>
        </mxCell>
        <mxCell id="rKBbz4sQz67ost8SNPDC-24" value="" style="sketch=0;outlineConnect=0;fontColor=#ffffff;fillColor=#006EAF;strokeColor=#006EAF;dashed=0;verticalLabelPosition=bottom;verticalAlign=top;align=center;html=1;fontSize=12;fontStyle=0;aspect=fixed;pointerEvents=1;shape=mxgraph.aws4.event;" vertex="1" parent="rKBbz4sQz67ost8SNPDC-25">
          <mxGeometry x="120" width="20" height="20" as="geometry" />
        </mxCell>
        <mxCell id="rKBbz4sQz67ost8SNPDC-30" value="" style="group" vertex="1" connectable="0" parent="1">
          <mxGeometry x="310" y="189" width="141" height="20" as="geometry" />
        </mxCell>
        <mxCell id="rKBbz4sQz67ost8SNPDC-29" value="" style="sketch=0;outlineConnect=0;fontColor=#ffffff;fillColor=#006EAF;strokeColor=#006EAF;dashed=0;verticalLabelPosition=bottom;verticalAlign=top;align=center;html=1;fontSize=12;fontStyle=0;aspect=fixed;pointerEvents=1;shape=mxgraph.aws4.event;" vertex="1" parent="rKBbz4sQz67ost8SNPDC-30">
          <mxGeometry width="18.799999999999997" height="18.799999999999997" as="geometry" />
        </mxCell>
        <mxCell id="rKBbz4sQz67ost8SNPDC-27" value="" style="endArrow=none;dashed=1;html=1;dashPattern=1 3;strokeWidth=2;rounded=0;fillColor=#1ba1e2;strokeColor=#006EAF;" edge="1" parent="rKBbz4sQz67ost8SNPDC-30" target="rKBbz4sQz67ost8SNPDC-29">
          <mxGeometry width="50" height="50" relative="1" as="geometry">
            <mxPoint x="141" y="9.710000000000036" as="sourcePoint" />
            <mxPoint x="221.83999999999997" y="9.710000000000036" as="targetPoint" />
          </mxGeometry>
        </mxCell>
        <mxCell id="rKBbz4sQz67ost8SNPDC-28" value="fulfilled&lt;br&gt;&lt;font color=&quot;#6e4201&quot;&gt;&lt;font style=&quot;font-size: 12px;&quot;&gt;(&lt;/font&gt;ActionFulfilledEvent&lt;/font&gt;&lt;span style=&quot;color: rgb(110, 66, 1);&quot;&gt;)&lt;/span&gt;" style="edgeLabel;html=1;align=right;verticalAlign=middle;resizable=0;points=[];fontSize=12;fontColor=#006EAF;rotation=0;" vertex="1" connectable="0" parent="rKBbz4sQz67ost8SNPDC-27">
          <mxGeometry x="0.2113" relative="1" as="geometry">
            <mxPoint x="70" y="-22" as="offset" />
          </mxGeometry>
        </mxCell>
        <mxCell id="rKBbz4sQz67ost8SNPDC-37" value="" style="group" vertex="1" connectable="0" parent="1">
          <mxGeometry x="275" y="70" width="166" height="20" as="geometry" />
        </mxCell>
        <mxCell id="rKBbz4sQz67ost8SNPDC-38" value="" style="endArrow=none;dashed=1;html=1;dashPattern=1 3;strokeWidth=2;rounded=0;fillColor=#1ba1e2;strokeColor=#006EAF;" edge="1" parent="rKBbz4sQz67ost8SNPDC-37" target="rKBbz4sQz67ost8SNPDC-40">
          <mxGeometry width="50" height="50" relative="1" as="geometry">
            <mxPoint y="9.710000000000008" as="sourcePoint" />
            <mxPoint x="142.76000000000002" y="9.710000000000008" as="targetPoint" />
          </mxGeometry>
        </mxCell>
        <mxCell id="rKBbz4sQz67ost8SNPDC-39" value="invoked&lt;br&gt;&lt;font color=&quot;#6e4201&quot;&gt;&lt;font style=&quot;font-size: 12px;&quot;&gt;(&lt;/font&gt;ActionInvokedEvent)&lt;/font&gt;" style="edgeLabel;html=1;align=left;verticalAlign=middle;resizable=0;points=[];fontSize=12;fontColor=#006EAF;rotation=0;" vertex="1" connectable="0" parent="rKBbz4sQz67ost8SNPDC-38">
          <mxGeometry x="0.2113" relative="1" as="geometry">
            <mxPoint x="-81" y="-20" as="offset" />
          </mxGeometry>
        </mxCell>
        <mxCell id="rKBbz4sQz67ost8SNPDC-40" value="" style="sketch=0;outlineConnect=0;fontColor=#ffffff;fillColor=#006EAF;strokeColor=#006EAF;dashed=0;verticalLabelPosition=bottom;verticalAlign=top;align=center;html=1;fontSize=12;fontStyle=0;aspect=fixed;pointerEvents=1;shape=mxgraph.aws4.event;" vertex="1" parent="rKBbz4sQz67ost8SNPDC-37">
          <mxGeometry x="143.26027397260276" width="20" height="20" as="geometry" />
        </mxCell>
      </root>
    </mxGraphModel>
  </diagram>
</mxfile>
